<svg width="3764" height="2795" xmlns="http://www.w3.org/2000/svg" xmlns:xlink="http://www.w3.org/1999/xlink" xml:space="preserve" overflow="hidden"><defs><clipPath id="clip0"><rect x="35" y="31" width="3764" height="2795"/></clipPath></defs><g clip-path="url(#clip0)" transform="translate(-35 -31)"><path d="M1873.7 203 1909.68 244.067C1926.48 263.013 1944.85 283.564 1963.99 304.875 2202.3 558.872 2494.54 936.391 2531.07 1033.82 2539.77 1059.91 2538.03 1061.65 2517.16 1045.99 2491.06 1023.38 2277.1 978.144 2118.8 960.749 2030.09 950.307 2017.91 943.349 1962.25 868.542 1929.2 823.31 1828.3 710.229 1739.59 618.023 1630 504.943 1581.29 442.312 1589.99 426.656 1596.95 414.476 1649.13 348.367 1706.54 282.256L1770.03 206.922 1873.7 203Z" fill-rule="evenodd"/><path d="M1325.87 825 1391.94 899.78C1428.45 939.779 1458 979.776 1458 986.732 1458 993.691 1412.8 1009.34 1358.91 1021.51 1303.27 1033.69 1244.16 1049.34 1228.51 1058.03 1186.79 1080.64 1188.53 1073.69 1261.55 941.517L1325.87 825Z" fill-rule="evenodd"/><path d="M2366.76 1231.25C2403.32 1236.58 2444.6 1258.95 2488.93 1300.23 2688.85 1482.7 2746.22 1786.83 2608.88 1929.34 2572.38 1969.31 2549.77 1978 2480.24 1978 2325.52 1978 2233.39 1845.92 2210.79 1593.93 2189.93 1352.8 2257.07 1215.29 2366.76 1231.25Z" fill-rule="evenodd"/><path d="M1387.8 1233.13C1411.16 1236.44 1432.97 1247.08 1452.51 1265.34 1567.12 1371.37 1530.65 1786.8 1396.94 1920.64 1348.32 1969.31 1327.48 1978 1258.02 1978 1152.09 1978 1113.89 1955.4 1073.95 1868.49 1013.17 1731.17 1042.69 1557.36 1155.57 1393.96 1233.71 1279.24 1317.71 1223.19 1387.8 1233.13Z" fill-rule="evenodd"/><path d="M1882.14 1822C1906.71 1822 1931.29 1828.8 1936.56 1839 1943.58 1849.2 1924.27 1856 1894.42 1856 1864.58 1856 1840 1847.5 1840 1839 1840 1828.8 1859.31 1822 1882.14 1822Z" fill-rule="evenodd"/><path d="M1875.02 1891C1899.37 1891 1958.49 1911.9 2005.44 1934.54 2054.12 1958.92 2134.11 2005.94 2184.53 2037.28 2415.79 2185.31 2673.14 2192.28 2819.19 2052.96 2883.53 1990.27 2878.31 2021.61 2805.28 2120.88 2758.33 2183.57 2714.87 2216.66 2612.28 2267.16 2597.5 2274.35 2579.43 2282.29 2559.02 2290.69L2544.06 2296.53 2522.65 2290.76C2335.53 2252.64 2115.86 2230.69 1880.91 2230.69 1645.95 2230.69 1426.29 2252.64 1239.17 2290.76L1208.61 2299 1142.99 2268.9C1026.49 2211.43 983.021 2178.35 932.597 2108.69 863.045 2016.39 857.827 1986.78 922.163 2047.73 1082.13 2199.24 1353.39 2187.05 1598.56 2018.13 1711.58 1941.5 1819.38 1891 1875.02 1891Z" fill-rule="evenodd"/><path d="M1377.38 32.1425C1382.27 31.3954 1387.17 33.6365 1389.69 37.9684 1422.91 96.8221 1460.88 172.261 1486.54 233.95 1557.36 223.121 1628.46 214.998 1699.79 209.584L1765 207.116 1702.67 273.568C1382.76 612.756 1052.42 1219.81 857.694 1819.91 780.544 2058 700.675 2395.96 651.623 2671.16L636.659 2763 531.184 2716.21C374.768 2638.87 216.366 2543.86 55.4432 2425.63 52.7736 2423.54 50.8452 2420.25 50.5491 2416.82-15.0067 1714.44 118.626 1003.25 606.438 274.135 607.62 272.194 609.4 270.699 611.478 269.803 851.452 159.561 1108.63 78.4503 1377.38 32.1425Z" fill-rule="evenodd"/><path d="M2454.99 32.1937C2724.02 78.6463 2981.33 159.752 3221.28 269.837 3223.36 270.733 3225.14 272.228 3226.17 274.318 3651.31 899.571 3861.29 1604.88 3782.79 2416.85 3782.49 2420.28 3780.71 2423.42 3777.89 2425.51 3536.39 2602.84 3300.56 2727.92 3067.96 2819.52L3049.45 2826 3046.41 2775.88C3038.77 2681.55 3029.2 2587.73 3017.9 2499.9 2979.63 2200.74 2965.71 2127.69 2896.13 1847.67 2755.23 1289.35 2558.67 826.699 2292.52 426.662 2262.95 382.309 2229.25 333.935 2194.95 286.186L2139 210.571 2347.26 233.987C2372.93 173.643 2409.58 96.8686 2442.68 38.0192 2445.2 33.5373 2450.09 31.2975 2454.99 32.1937Z" fill-rule="evenodd"/><path d="M1173 2278.5C1173 2246.74 1486.62 2221 1873.5 2221 2260.38 2221 2574 2246.74 2574 2278.5 2574 2310.26 2260.38 2336 1873.5 2336 1486.62 2336 1173 2310.26 1173 2278.5Z" fill-rule="evenodd"/></g></svg>